<!-- Generator: Adobe Illustrator 19.2.0, SVG Export Plug-In  -->
<svg version="1.1"
	 xmlns="http://www.w3.org/2000/svg" xmlns:xlink="http://www.w3.org/1999/xlink" xmlns:a="http://ns.adobe.com/AdobeSVGViewerExtensions/3.0/"
	 x="0px" y="0px" width="500.5px" height="88.8px" viewBox="0 0 500.5 88.8" style="enable-background:new 0 0 500.5 88.8;"
	 xml:space="preserve">
<style type="text/css">
	.st0{fill:#9FC9EC;}
	.st1{fill:#F4D3AA;}
	.st2{fill:#6290C3;}
	.st3{fill:#78A6D1;}
	.st4{fill:#FFFFFF;}
	.st5{opacity:0.3;}
	.st6{fill:#EEF3F9;}
	.st7{opacity:0.9;}
	.st8{fill:#F0F2F8;}
	.st9{fill:#EDF0F7;}
	.st10{fill:#EEF1F8;}
	.st11{fill:#C2CFE6;}
	.st12{fill:#CAD5E9;}
	.st13{fill:#C5D2E7;}
	.st14{fill:#CDD7EA;}
	.st15{fill:#DAE1EF;}
	.st16{fill:#D5DEED;}
	.st17{fill:#DFE5F1;}
	.st18{fill:#E7EBF5;}
	.st19{fill:#4E5057;}
	.st20{fill:#4F5057;}
	.st21{fill:#DABD9D;}
	.st22{fill:#336390;}
	.st23{fill:#FFFFFF;}
	.st24{fill:#5DC0DE;}
</style>
<defs>
</defs>
<g>
	<circle class="st0" cx="44.4" cy="44.4" r="44.4"/>
	<g>
		<g id="XMLID_62_">
			<g>
				<path id="XMLID_64_" class="st1" d="M44.2,73.8c-0.3-0.3-0.6-0.5-1-0.6v-8.3h-1.2v7.7c-1.1-0.6-2.5-0.4-3.4,0.6
					c-1.1,1.2-0.2,4.5-0.2,4c0-0.3,0.5-0.8,1.2-1.2c0,1.2,0.4,2.3,0.4,1.9C40.1,76.9,45.3,74.8,44.2,73.8z"/>
				<path class="st2" d="M44.4,73.6c-0.2-0.2-0.8-0.4-0.9-0.6c-0.1-0.2,0-0.6,0-0.8c0-1,0-1.9,0-2.9c0-1.5,0-3,0-4.5
					c0-0.1-0.1-0.2-0.2-0.2c-0.4,0-0.8,0-1.2,0c-0.1,0-0.3,0.1-0.3,0.2c0,2.6,0,5.2,0,7.7c0.1-0.1,0.3-0.1,0.4-0.2
					c-1.5-0.7-3.7-0.2-4.2,1.5c-0.2,0.7-0.2,1.6-0.1,2.3c0,0.3,0.1,1.1,0.4,1.2c0.2,0.1,0.3,0,0.4-0.1c0.3-0.5,0.6-0.8,1.1-1.2
					c-0.1,0-0.3-0.1-0.4-0.1c0,0.4,0,2,0.5,2.2c0.2,0,0.4,0,0.4-0.2C40.6,76.9,45.7,75,44.4,73.6c-0.1-0.2-0.6,0.1-0.4,0.3
					c0.6,0.7-1.8,2-2.3,2.3c-0.7,0.4-1.7,1-1.9,1.9c0.1-0.1,0.3-0.1,0.4-0.2C40.1,77.8,40,76.1,40,76c0-0.2-0.3-0.2-0.4-0.1
					c-0.6,0.4-0.9,0.8-1.3,1.4c0.1,0,0.3-0.1,0.4-0.1c0,0-0.1-0.6-0.2-0.8c-0.1-0.5-0.1-1.1-0.1-1.6c0.1-1.8,2-2.7,3.6-1.9
					c0.1,0.1,0.4,0,0.4-0.2c0-2.6,0-5.2,0-7.7c-0.1,0.1-0.2,0.1-0.3,0.2c0.4,0,0.8,0,1.2,0c-0.1-0.1-0.2-0.1-0.2-0.2
					c0,2.8,0,5.5,0,8.3c0,0.1,0,0.1,0.1,0.2c0.3,0.1,0.6,0.3,0.9,0.6C44.2,74.1,44.7,73.8,44.4,73.6z"/>
			</g>
			<g>
				<path id="XMLID_63_" class="st1" d="M44.9,74c0.3-0.3,0.6-0.5,1-0.6v-8.3H47v7.7c1.1-0.6,2.5-0.4,3.4,0.6c1.1,1.2,0.2,4.5,0.2,4
					c0-0.3-0.5-0.8-1.2-1.2c0,1.2-0.4,2.3-0.4,1.9C49,77.1,43.8,75,44.9,74z"/>
				<path class="st2" d="M45.1,74c0.2-0.2,0.5-0.4,0.8-0.5c0.1,0,0.2-0.1,0.2-0.2c0-2.8,0-5.5,0-8.3c-0.1,0.1-0.2,0.1-0.4,0.2
					c0.2,0,1-0.1,1.1,0c-0.2-0.2-0.1,0.3-0.1,0.4c0,0.9,0,1.7,0,2.6c0,1.6,0,3.1,0,4.7c0,0.1,0.4,0,0.4,0c1.6-0.8,3.4,0.4,3.6,2.1
					c0,0.5,0,1.1-0.1,1.6c0,0.2-0.3,0.8-0.1,0.8c0.1,0,0.2,0,0.4,0c-0.3-0.6-0.6-0.9-1.2-1.3c-0.1-0.1-0.5,0-0.5,0.1
					c0,0.4-0.1,0.9-0.2,1.3c-0.1,0.3-0.3,0.6,0,0.5c0.1,0,0.2,0,0.3,0C49.1,77.1,44.3,74.9,45.1,74c0.2-0.2-0.3-0.1-0.4,0
					c-1.1,1.2,3.9,3.1,4.1,4.3c0,0.1,0.2,0.1,0.3,0c0.7-0.2,0.6-1.6,0.6-2.1c-0.2,0-0.3,0.1-0.5,0.1c0.5,0.4,0.9,0.7,1.2,1.3
					c0.1,0.1,0.3,0,0.4,0c0.3-0.1,0.4-0.7,0.4-1c0.1-0.8,0.2-1.7,0-2.5c-0.5-1.7-2.8-2-4.3-1.3c0.1,0,0.3,0,0.4,0c0-2.6,0-5.2,0-7.7
					c0-0.1-0.1-0.1-0.2-0.1c-0.4,0-0.8,0-1.2,0c-0.1,0-0.4,0.1-0.4,0.2c0,2.8,0,5.5,0,8.3c0.1-0.1,0.1-0.1,0.2-0.2
					c-0.4,0.2-0.7,0.4-1.1,0.6C44.4,74.1,44.9,74.1,45.1,74z"/>
			</g>
		</g>
		<g>
			<path class="st3" d="M71.6,39.9c-0.8-1.7-2.6-2.6-4.3-2.4c-0.4,0.1-0.9,0.2-1.2,0.5c0-5.1-0.2-9.9-0.5-14.6c0-1.8-0.8-3.5-2-4.7
				c-0.2-0.2-0.4-0.4-0.7-0.6c0-0.1-0.1-0.3-0.1-0.4c-0.7-2-0.1-3.7-0.8-4.6c-1,0-4.2,0.5-5.9,1.3c-1,0.5-1.8,1.1-2.4,1.7
				c-1.8-0.2-3.7-0.3-5.7-0.4c-1.2-0.3-2.4-0.7-3.8-1.2c-2.6-1.1-4.7-2.5-6.1-3.6l5,4.4c-0.8-0.2-1.7-0.5-2.5-0.9
				c-2.6-1.1-4.7-2.5-6.1-3.6l5.6,4.9c-1.4,0.1-2.7,0.1-4,0.3c-0.6-0.6-1.5-1.3-2.7-1.9c-1.6-0.8-4.9-1.3-5.9-1.3
				c-0.7,0.8,0,2.6-0.8,4.6c0,0.1-0.1,0.2-0.1,0.3c-0.5,0.3-0.9,0.6-1.3,1c-1.9,1.9-2,4.3-2,4.7c-0.4,4.6-0.6,9.4-0.7,14.6
				c-0.4-0.2-0.8-0.4-1.2-0.4c-1.7-0.3-3.5,0.7-4.3,2.4c-0.7,1.9-1.6,5.5-1.1,10c0.5,4.6,2.4,8,3.4,9.6c1.2-2.2,2.4-5.1,3.5-8.4
				c0,0,0,0,0-0.1c0.1,2.3,0.3,4.6,0.5,6.8c0,1.8,0.8,3.5,2,4.7c1.9,1.9,4.3,2,4.7,2c4.6,0.5,9.7,0.8,15.2,0.7
				c4.8,0,9.3-0.3,13.4-0.7c1.8,0,3.5-0.8,4.7-2c1.9-1.9,2-4.3,2-4.7c0.1-2.2,0.2-4.4,0.3-6.6c1,3.3,2.3,6.1,3.4,8.3
				c1.1-1.7,2.9-5,3.4-9.6C73.2,45.4,72.2,41.8,71.6,39.9z"/>
			<path class="st2" d="M72.1,40.3c-1.2-2.2-4.3-4-6.7-2.7c0.4,0.3,0.7,0.5,1.1,0.8c0-4.1-0.1-8.2-0.3-12.3c-0.1-1.8,0-3.6-0.8-5.3
				c-0.3-0.7-0.8-1.3-1.4-1.9c-0.7-0.7-0.9-1.4-1-2.4c-0.1-1.2,0.2-2.5-0.8-3.3c-0.3-0.2-0.5-0.4-0.8-0.5c-0.5-0.1-1.2,0.1-1.7,0.2
				c-1.4,0.2-2.9,0.5-4.1,1.2c-0.7,0.3-1.3,0.8-1.9,1.3c-0.4,0.3-0.6,0.3-1.1,0.2c-0.5,0-1.1-0.1-1.6-0.1c-1.1-0.1-2.3,0-3.4-0.2
				c-1-0.2-2-0.6-2.9-0.9c-2-0.8-4.1-1.8-5.8-3.1c-0.3-0.3-0.7-0.5-1.1-0.8c1.4,1.2,2.7,2.4,4.1,3.6c0.2,0.2,0.6,0.4,0.8,0.7
				c0,0,0.1,0.1,0.1,0.1c0,0-1.5-0.5-1.6-0.5c-2.1-0.8-4.2-1.8-6-3.2c-0.3-0.3-0.7-0.5-1.1-0.8c1.2,1.1,2.4,2.1,3.6,3.2
				c0.6,0.5,1.4,1,1.8,1.6c0,0,0.2,0.1,0.2,0.1c0,0.1-0.5,0-0.7,0.1c-1.1,0.1-2.2,0.1-3.3,0.2c0.4,0.3,0.7,0.5,1.1,0.8
				c-1.1-1.1-2.5-2.1-3.9-2.8c-0.9-0.4-1.8-0.6-2.8-0.8c-0.8-0.2-1.9-0.5-2.7-0.4c-0.4,0.1-0.5,0.3-0.5,0.7c-0.1,0.5-0.1,1-0.1,1.4
				c0,0.5,0,1-0.1,1.5c-0.1,0.3-0.1,0.7-0.3,1c-0.2,0.4-0.5,0.5-0.8,0.7c-1.5,1.2-2.4,3-2.6,5c-0.2,2.4-0.4,4.7-0.5,7.1
				c-0.1,1.2-0.1,2.5-0.2,3.7c0,0.7,0,1.4-0.1,2.1c0,0.3,0,0.7,0,1c0,0.2,0,0.5,0,0.7c0.1,0.4,0,0.5-0.3,0.2c-0.3,0-0.6-0.2-0.9-0.3
				c-0.2,0-0.5-0.1-0.7,0c-0.5,0-1,0.1-1.4,0.3c-1,0.4-1.8,1.2-2.2,2.2c-0.7,1.7-1,3.6-1.1,5.4c-0.4,5,0.8,10,3.5,14.1
				c0.1,0.1,1.1,0.7,1.1,0.8c1.4-2.7,2.6-5.5,3.5-8.5c-0.4-0.3-0.7-0.5-1.1-0.8c0.1,2.5,0.2,5.2,0.5,7.7c0.2,1.9,1.3,3.5,2.8,4.6
				c1.2,0.9,2.3,1.6,3.8,1.9c1.6,0.3,3.4,0.3,5,0.5c5,0.4,10,0.5,15,0.3c2.4-0.1,4.8-0.2,7.2-0.4c2.2-0.2,4.5-0.1,6.4-1.4
				c1.7-1.1,2.8-2.9,3-4.9c0.3-2.4,0.2-4.9,0.3-7.3c-0.4-0.3-0.7-0.5-1.1-0.8c0.9,2.9,2,5.6,3.4,8.3c0.1,0.1,1.1,0.8,1.1,0.8
				C73.5,54.2,74.4,46.9,72.1,40.3c-0.1-0.4-1-0.4-1.1-0.8c2.3,6.5,1.4,13.8-2.3,19.6c0.4,0.3,0.7,0.5,1.1,0.8
				c-1.4-2.7-2.5-5.4-3.4-8.3c-0.1-0.3-1.1-0.5-1.1-0.8c-0.1,2.3-0.2,4.5-0.3,6.8c-0.1,1.4-0.5,2.8-1.4,3.9c-1.2,1.5-3,2.5-4.9,2.6
				c-2.1,0.1-4.2,0.4-6.4,0.5c-4.8,0.3-9.5,0.3-14.3,0.1c-2.1-0.1-4.2-0.2-6.3-0.4c-1.3-0.1-2.8-0.1-4.1-0.5c-1-0.3-1.7-0.8-2.3-1.7
				c-0.6-0.8-1-1.8-1.2-2.8c-0.2-1.2-0.2-2.6-0.3-3.8c-0.1-1.4-0.2-2.8-0.3-4.1c0-0.2-1.1-0.6-1.1-0.8c-0.9,2.9-2.1,5.8-3.5,8.5
				c0.4,0.3,0.7,0.5,1.1,0.8c-3-4.7-4.2-10.5-3.3-16c0.4-2.3,1-5.1,3.6-5.9c0.6-0.2,1.2-0.2,1.9-0.1c0.1,0,1,0.4,1,0.4
				c0.1-0.1,0-1.4,0-1.6c0-1.8,0.1-3.6,0.2-5.5c0.1-2.8,0.2-5.7,0.6-8.5c0.2-1.2,0.7-2.4,1.5-3.4c0.5-0.6,1.1-0.9,1.6-1.4
				c0.5-0.5,0.6-1.7,0.6-2.4c0-0.6,0-1.3,0.1-1.9c0.1-0.7,0.3-0.7,0.9-0.6c1.2,0.1,2.4,0.3,3.5,0.7c0.6,0.2,1.2,0.3,1.7,0.6
				c0.2,0.1,1.4,0.9,0.9,0.5c-0.5-0.4,0.1,0.1,0.3,0.3c0.1,0.1,0.3,0.3,0.4,0.4c0.2,0.2,0.5,0.4,0.8,0.6c0.5,0.4,1,0.2,1.7,0.1
				c0.3,0,2.7-0.2,2.7-0.2c0-0.1-0.3-0.3-0.3-0.3c-0.6-0.5-1.2-1.1-1.9-1.6c-1.1-1-2.3-2-3.4-3c-0.4-0.3-0.7-0.5-1.1-0.8
				c1.3,1,2.6,1.9,4,2.8c1.2,0.7,2.4,1.3,3.6,1.8c0.2,0.1,2,0.6,2.1,0.7c0,0-0.1-0.1-0.2-0.1c-0.3-0.3-0.7-0.6-1.1-0.9
				c-0.6-0.5-1.1-1-1.7-1.5c-0.7-0.6-1.4-1.2-2.1-1.8c-0.4-0.3-0.7-0.5-1.1-0.8c3.4,2.7,7.7,5.4,12.1,5.6c0.7,0,1.5,0.1,2.2,0.1
				c0.7,0,1.5,0.3,2.1,0.2c0.4-0.1,0.9-0.6,1.3-0.9c0.5-0.3,1-0.6,1.5-0.9c1.7-0.7,3.7-1.1,5.6-1.2c-0.4-0.3-0.7-0.5-1.1-0.8
				c0.5,0.7,0.4,1.6,0.4,2.4c0,0.8,0.1,1.9,0.5,2.6c0.3,0.5,0.9,0.8,1.3,1.3c0.3,0.4,0.6,0.8,0.8,1.3c0.4,0.9,0.6,1.9,0.6,2.9
				c0.2,4.8,0.4,9.6,0.4,14.5c0,0.1,1.1,0.8,1.1,0.8c0.8-0.4,1.8-0.6,2.7-0.4c1,0.2,1.3,0.6,1.8,1.5C71.2,39.9,71.9,40,72.1,40.3z"
				/>
		</g>
		<g>
			<path id="XMLID_61_" class="st4" d="M43.2,27.2c1.7,4.6,2.7,13.9-4.3,18.3c-6.2,3.9-14.4,1.9-18.3-4.3
				c-4.3-6.9,0.4-14.8,4.3-18.3c0.9-0.8,5.8-5.2,11.2-3.5C40.8,20.8,42.6,25.7,43.2,27.2z"/>
			<path class="st2" d="M42.6,27.2c1.5,4.2,1.9,9.2,0,13.3c-2.5,5.6-9.3,8.2-15,6c-2.7-1-5-2.9-6.5-5.4c-1.7-2.8-2.1-6.1-1.3-9.3
				c1.2-4.8,4.6-9.1,9-11.4c1.8-1,3.9-1.7,6-1.3c1.6,0.3,3.2,1.2,4.4,2.3C40.8,23.1,41.8,25.1,42.6,27.2c0.1,0.2,1.1,0,1.1,0
				c-0.8-2.1-1.8-4.1-3.4-5.7c-2.1-2-4.9-2.8-7.8-2.5c-5.4,0.5-10,4.8-12.3,9.4c-1.6,3.2-2.4,6.9-1.2,10.3c1,3.1,3.4,5.7,6.3,7.3
				c5,2.6,12,2,16.1-2c4.4-4.2,4.4-11.4,2.4-16.8C43.6,27,42.6,27.2,42.6,27.2z"/>
		</g>
		<g>
			<path id="XMLID_60_" class="st4" d="M46.3,27.7c-1.7,4.6-2.7,13.9,4.3,18.3c6.2,3.9,14.4,1.9,18.3-4.3c4.3-6.9-0.4-14.8-4.3-18.3
				c-0.9-0.8-5.8-5.2-11.2-3.5C48.7,21.3,46.9,26.2,46.3,27.7z"/>
			<path class="st2" d="M45.8,27.7c-1.7,4.7-2,10.6,0.8,14.9c3.3,5.1,10.3,6.6,15.8,4.7c2.9-1,5.4-3,7-5.6c1.9-3.1,2.1-6.9,1-10.3
				c-1.7-5-5.8-9.7-10.9-11.4c-3.2-1.1-6.9-0.7-9.6,1.4C47.9,23.1,46.7,25.4,45.8,27.7c0,0.1,1,0.3,1.1,0c0.7-1.8,1.6-3.6,2.9-5.1
				c2.3-2.5,5.5-3.6,8.7-2.5c4.7,1.5,8.5,5.7,10.4,10.1c1.2,2.9,1.6,6.2,0.5,9.3c-1,2.9-3.2,5.3-5.9,6.8c-5.2,2.8-12.2,1.5-15.7-3.5
				c-3-4.3-2.7-10.4-1-15.1C46.9,27.6,45.9,27.5,45.8,27.7z"/>
		</g>
		<g>
			<path id="XMLID_59_" class="st4" d="M44.5,47.5c-7.5,0-14.2,12.7-12.6,17.3c0,0.1,0,0.1,0.1,0.2c3.9,0.3,8.2,0.5,12.8,0.5
				c0,0,0,0,0.1,0c0,0,0.1,0,0.1,0c0,0,0.1,0,0.1,0c4.3,0,8.3-0.3,12-0.6c0-0.1,0.1-0.1,0.1-0.2C58.7,60,52,47.5,44.5,47.5z"/>
			<path class="st2" d="M44.7,47.4c-3.2,0-5.9,1.9-8,4.2c-2.3,2.6-4.2,5.8-5,9.2c-0.3,1.4-0.5,2.9,0,4.3c0,0,0,0,0,0
				c8.4,0.7,16.8,0.7,25.1-0.1c0.1,0,0.3,0,0.4-0.1c0.6-1.5,0.3-3.2-0.1-4.8c-0.6-2.1-1.5-4.1-2.7-5.8
				C52.3,50.9,48.9,47.4,44.7,47.4c-0.1,0-0.6,0.2-0.3,0.2c4.3,0.1,7.7,3.7,9.8,7.1c1.1,1.7,1.9,3.5,2.5,5.5
				c0.4,1.5,0.7,3.2,0.1,4.7c0.1,0,0.2-0.1,0.4-0.1c-4,0.4-8,0.6-12.1,0.6c-2.1,0-4.2,0-6.2-0.1c-0.9,0-1.8-0.1-2.8-0.1
				c-1.1-0.1-2.2,0-3.2-0.2c-0.7-0.1-0.7-0.4-0.8-1c-0.1-0.5-0.1-1,0-1.5c0.1-1.1,0.4-2.2,0.7-3.3c0.8-2.5,2.2-4.8,3.8-6.8
				c1.9-2.4,4.6-4.7,7.8-4.7C44.4,47.6,44.9,47.4,44.7,47.4z"/>
		</g>
		<g class="st5">
			<ellipse id="XMLID_58_" class="st6" cx="32.5" cy="33.7" rx="3.5" ry="5.9"/>
			<g class="st7">
				<g class="st7">
					<path class="st8" d="M35.5,36.4l0.1-0.2c0,0-0.1,0-0.1-0.1c0-0.2-0.2,0.4-0.4,0.9C35,37.1,35.2,37,35.5,36.4z"/>
					<path class="st9" d="M36.7,34c0-0.1,0-0.2,0-0.3c0,0,0,0,0,0C36.7,33.8,36.7,33.9,36.7,34z"/>
					<path class="st8" d="M36.1,34.6c0,0.2,0,0.4-0.1,0.5c0,0.2,0,0.3-0.1,0.5c0.1-0.2,0.1-0.3,0.2-0.4c0.1-0.1,0.2-0.3,0.2-0.5
						c0-0.1,0-0.3,0-0.5c0,0.1,0,0.1,0,0.2c0-0.1,0-0.2,0-0.2c0-0.1,0-0.1,0-0.1c0,0,0,0.2-0.1,0.4c0,0.2-0.1,0.4-0.1,0.6
						c0-0.2,0-0.5,0-0.7c0,0.1,0,0.1-0.1,0.2c0,0.1,0,0.2,0,0.3L36.1,34.6z"/>
					<path class="st8" d="M33.8,37.9C33.8,37.9,33.8,37.9,33.8,37.9c0.1-0.1,0.2-0.2,0.2-0.4l-0.1,0.1l-0.1,0.1
						C33.8,37.8,33.7,37.9,33.8,37.9l-0.1,0c0,0,0,0,0-0.1l0,0c0,0-0.1,0.1-0.1,0.1l0.1,0c-0.1,0-0.1,0.1-0.2,0.1
						c0,0-0.1,0.1-0.1,0.1C33.5,38.2,33.6,38,33.8,37.9z"/>
					<path class="st10" d="M32,38.4c0,0.1,0,0.1-0.1,0.1c0.1,0,0.2,0.1,0.2,0.1c0.1,0,0.2,0.1,0.2,0.1c-0.1,0.1,0.1,0.3,0.5,0.3
						c0.4,0,0.8-0.2,1-0.3c0.2-0.1,0.5-0.3,0.8-0.6c0.3-0.3,0.5-0.6,0.7-0.8c0-0.1,0-0.1,0.1-0.4c-0.1,0.1-0.2,0.3-0.2,0.5
						c0,0,0,0.1,0,0.1c0,0,0-0.1,0-0.1c0-0.1,0.1-0.3,0.2-0.4c0,0.1-0.1,0.1-0.1,0.1c0,0,0-0.1,0-0.1c-0.2,0.2-0.3,0.4-0.5,0.6
						c-0.2,0.1-0.3,0.2-0.4,0.2l-0.1,0.1c-0.4,0.5-0.6,0.5-0.6,0.4c-0.2,0.2-0.5,0.4-0.7,0.4c-0.3,0-0.5-0.1-0.7-0.2
						c0,0-0.1,0-0.1,0C32.1,38.4,32.1,38.4,32,38.4C32.1,38.4,32,38.4,32,38.4z"/>
					<path class="st11" d="M36.2,33.7c0.1,0,0.1-0.2,0.2-0.4c0-0.1,0.1-0.2,0.1-0.3c0-0.1,0-0.3,0.1-0.4c0.1-0.6,0-1.4-0.3-2.2
						c-0.3-0.8-0.7-1.6-1.3-2.3c-0.3-0.3-0.7-0.7-1.3-0.9c-0.5-0.2-1.1-0.3-1.7-0.2c0.1,0,0.1,0,0.2,0.1c0,0,0,0.1-0.1,0.1
						c-0.1,0-0.2,0.1-0.3,0.2c-0.1,0-0.1,0.1-0.2,0.1c-0.1,0-0.2,0.1-0.3,0.2c-0.1,0.1-0.2,0.1-0.3,0.2c-0.1,0.1-0.2,0.2-0.3,0.2
						c-0.1,0.1-0.2,0.2-0.3,0.2c-0.1,0.1-0.1,0.1-0.1,0.2c-0.3,0.4-0.4,0.7-0.5,1c-0.1,0.3-0.2,0.6-0.4,1.1c0.1-0.2,0.2-0.2,0.3-0.3
						c0.3-0.5,0.7-1.1,1.2-1.8c0.1-0.1,0.3-0.2,0.3-0.2c0.1,0,0.1,0-0.1,0.2c0.3-0.2,0.6-0.3,0.8-0.5c0.1,0,0.3-0.1,0.4-0.1l0.2,0
						l0.1,0l0.1,0c0.1,0,0.2,0,0.3,0c0.1,0,0.1,0,0.2,0.1c0.1,0,0.1,0,0.1,0.1c0,0,0.1,0,0.1,0.1c0.1,0.1,0.1,0.1,0.1,0.2
						c0,0.1-0.2,0.1,0,0.3c0,0.1,0.1,0.1,0.2,0.2c0.4,0.2,0.8,0.5,1.1,0.9c0.3,0.4,0.6,0.8,0.8,1.3c0.1,0.2,0.1,0.6,0.2,0.8
						c0.1,0.4,0.2,1,0.3,1.4C36.1,33.5,36.1,33.8,36.2,33.7z"/>
					<path class="st12" d="M28.2,33.1c0-0.3,0-0.6,0-1c-0.1,0.5-0.2,1-0.3,1.6c0,0.1,0.1,0.3,0.1,0.4C28.1,33.7,28.1,33.3,28.2,33.1
						z"/>
					<path class="st12" d="M32.6,28.4c0.1-0.1,0-0.1-0.1-0.1c-0.1,0-0.1,0-0.2,0c0,0-0.1,0-0.1,0c0,0-0.1,0-0.1,0
						c-0.6,0.2-0.9,0.5-1.3,0.7c0,0-0.2,0.2-0.3,0.3c0,0-0.2,0.1-0.1-0.1c-0.1,0.1-0.1,0.2-0.2,0.3c0,0-0.1,0.1-0.1,0.1
						c0,0,0,0.1,0,0.1c-0.2,0.3,0.1-0.3-0.1-0.1c-0.3,0.6-0.5,1.2-0.6,1.6c-0.1,0.2-0.2,0.3-0.2,0.3c-0.1,0-0.1,0-0.1-0.1
						c0-0.1,0-0.3,0-0.4c0-0.2,0-0.3,0-0.4c0-0.3,0.3-0.9,0.6-1.4c-0.2,0.1-0.6,0.8-0.4,0.4c0.1-0.2,0.2-0.4,0.3-0.6
						c0-0.1,0.1-0.2,0.1-0.3c0-0.1,0.1-0.2,0.1-0.2c-0.4,0.5-0.7,1.1-0.9,1.7c-0.2,0.6-0.3,1.1-0.4,1.4c0,0.1-0.1,0.2-0.1,0.3
						c0,0.1-0.1,0.2-0.1,0.3c0,0.4,0,0.7,0,1c-0.1,0.2-0.2,0.6-0.2,1c0,0.2,0.1,0.3,0.1,0.4c0.1,0.2,0.1-0.1,0.1-0.4
						c0-0.1,0-0.2,0-0.3c0-0.1,0-0.2,0-0.3c0-0.2,0-0.3,0.1-0.4c0,0.7,0.1,1.2,0.2,1.3c0.1,0.2,0.2,0.1,0.3-0.1
						c0.1-0.2,0.1-0.3,0.1-0.5c0.1-0.2,0.1-0.4,0.2-0.7c0-0.1,0-0.3,0.1-0.5c0-0.2,0-0.4,0.1-0.6c0,0.1,0,0.5,0,0.4
						c0.2-0.7,0.4-0.9,0.6-1.7c0,0,0.1,0,0,0.2c0-0.2,0.1-0.3,0.1-0.3c0,0,0.1-0.1,0.2-0.3c0.1-0.1,0.2-0.1,0.3-0.1
						c0.1,0,0.2-0.1,0.3-0.4c0,0,0-0.1,0.1-0.1c0,0,0-0.1,0.1-0.1c0,0,0.1-0.1,0.1-0.1c0.2-0.3,0.5-0.7,0.9-0.8
						c0.3-0.1,0.6-0.1,0.9-0.1c0,0-0.1,0-0.1,0C32.8,28.5,32.7,28.5,32.6,28.4C32.7,28.5,32.6,28.4,32.6,28.4z"/>
					<path class="st13" d="M33.4,28.5c-0.2-0.2,0-0.2,0-0.3c0,0,0-0.1-0.1-0.2c0,0-0.1,0-0.1-0.1c0,0-0.1,0-0.1-0.1
						c-0.1,0-0.1,0-0.2-0.1c-0.1,0-0.2,0-0.3,0l-0.1,0l-0.1,0l-0.2,0c-0.1,0-0.3,0.1-0.4,0.1c-0.3,0.1-0.5,0.2-0.8,0.5
						c0.2-0.2,0.2-0.2,0.1-0.2c-0.1,0-0.3,0.1-0.3,0.2c-0.6,0.7-0.9,1.3-1.2,1.8c-0.1,0.2-0.2,0.2-0.3,0.3c0.1-0.5,0.3-0.8,0.4-1.1
						c0.1-0.3,0.2-0.6,0.5-1c0,0,0.1-0.1,0.1-0.2c0.1-0.1,0.2-0.2,0.3-0.2c0.1-0.1,0.2-0.2,0.3-0.2c0.1-0.1,0.2-0.1,0.3-0.2
						c0.1-0.1,0.2-0.1,0.3-0.2c0.1,0,0.1-0.1,0.2-0.1c0.1-0.1,0.2-0.1,0.3-0.2c0.1,0,0.1-0.1,0.1-0.1c0,0-0.1-0.1-0.2-0.1
						c-0.2,0-0.4,0.1-0.6,0.2c-0.1,0-0.2,0.1-0.3,0.1l-0.3,0.2c-0.2,0.1-0.3,0.2-0.5,0.4c-0.1,0.1-0.3,0.3-0.4,0.4
						c0,0.1-0.1,0.1-0.1,0.2c0,0.1-0.1,0.2-0.1,0.2c0,0.1-0.1,0.2-0.1,0.3c-0.1,0.2-0.2,0.4-0.3,0.6c-0.1,0.4,0.3-0.3,0.4-0.4
						c-0.3,0.5-0.7,1.1-0.6,1.4c0,0.1,0,0.3,0,0.4c0,0.2,0,0.3,0,0.4c0,0.1,0.1,0.2,0.1,0.1c0.1,0,0.1-0.2,0.2-0.3
						c0.2-0.4,0.4-0.9,0.6-1.6c0.2-0.2-0.1,0.4,0.1,0.1c0,0,0-0.1,0-0.1c0,0,0.1-0.1,0.1-0.1c0.1-0.1,0.1-0.2,0.2-0.3
						c-0.1,0.2,0.1,0,0.1,0.1c0.1-0.1,0.3-0.3,0.3-0.3c0.4-0.2,0.7-0.5,1.3-0.7c0,0,0.1,0,0.1,0c0,0,0.1,0,0.1,0c0.1,0,0.1,0,0.2,0
						c0.1,0,0.2,0.1,0.1,0.1c0,0,0,0,0.1,0c0,0,0.1,0,0.1,0c0,0,0.1,0,0.1,0c0.2,0,0.5,0.1,0.7,0.2C33.5,28.7,33.5,28.6,33.4,28.5z"
						/>
					<path class="st14" d="M30.9,29.7c-0.2,0.2-0.2,0.3-0.3,0.4c-0.1,0-0.2,0-0.3,0.1c-0.1,0.2-0.1,0.2-0.2,0.3c0,0-0.1,0.1-0.1,0.3
						c0.1-0.2,0-0.2,0-0.2c-0.3,0.8-0.4,1.1-0.6,1.7c0,0.1,0-0.3,0-0.4c0,0.2,0,0.4-0.1,0.6c0,0.2,0,0.4-0.1,0.5
						c-0.1,0.3-0.1,0.5-0.2,0.7c0,0.2-0.1,0.4-0.1,0.5c-0.1,0.2-0.2,0.3-0.3,0.1c-0.1-0.2-0.2-0.6-0.2-1.3c0,0.1-0.1,0.2-0.1,0.4
						c0,0.1,0,0.2,0,0.3c0,0.1,0,0.2,0,0.3c0,0.3,0,0.6-0.1,0.4c0-0.1-0.1-0.2-0.1-0.4c0,0.5,0.1,1.1,0.2,1.6
						c0.1,0.6,0.3,1.1,0.5,1.7c0.1,0,0.1,0,0-0.2c0-0.2-0.1-0.3-0.1-0.4c0-0.1,0-0.2,0-0.3c0-0.1,0-0.2,0.1-0.3
						c0.1-0.1,0.2-0.2,0.2-0.7c0-0.1,0-0.3,0-0.4c0-0.2,0-0.3,0-0.4c0.1-0.4,0.3,0,0.4-0.4c0,0,0-0.7,0-0.7c0.1-0.2,0.2-0.1,0.3-0.6
						c0-0.2,0.1-0.3,0.1-0.4c0-0.1,0.1-0.3,0.1-0.4c0.1-0.2,0.2-0.4,0.2-0.5c0.1-0.1,0.2-0.3,0.2-0.4l0.1-0.2l0.1-0.2
						c0.1-0.6,0.3-1.1,0.6-1.6c0,0-0.1,0.1-0.1,0.1C31,29.6,31,29.6,30.9,29.7C31,29.7,30.9,29.7,30.9,29.7z"/>
					<path class="st15" d="M36.1,38.9c0-0.1,0.1-0.2,0.1-0.2c0-0.1,0.1-0.2,0.1-0.2c0.1-0.2,0.2-0.3,0.2-0.5
						c-0.4,0.7-0.8,1.1-1.1,1.4c-0.2,0.1-0.4,0.3-0.5,0.3c-0.2,0.1-0.3,0.1-0.5,0.2c0,0-0.2,0.1-0.5,0.2c-0.1,0.1-0.3,0.1-0.4,0.2
						c-0.2,0.1-0.4,0.1-0.5,0.1c-0.2,0-0.4,0-0.6,0c-0.2,0-0.4,0-0.5-0.1c-0.1,0-0.3-0.1-0.4-0.1c-0.1,0-0.2-0.1-0.2-0.1
						c0,0,0.1,0,0.1,0c0.1,0,0.2,0,0.3,0c0.2,0,0.5,0.1,0.8,0c-0.1,0-0.3,0-0.4-0.1c-0.1,0-0.2-0.1-0.3-0.1c-0.1,0-0.2-0.1-0.3-0.1
						c-0.1-0.1-0.1-0.1-0.2-0.1c-0.1-0.1-0.2-0.2-0.3-0.3c0,0-0.1-0.1-0.1-0.1c0,0-0.1-0.1-0.1-0.1c-0.1-0.1-0.1-0.2-0.2-0.3
						c0-0.1-0.1-0.2-0.1-0.3c-0.1-0.1-0.1-0.2-0.1-0.3c-0.1-0.1-0.1-0.3-0.2-0.4C30,37.3,30,36.7,30,36.3c0-0.2,0-0.4,0.1-0.6
						c0.1-0.1,0.1-0.2,0.2-0.3c0.1-0.1,0.1-0.8,0.1-1.5c-0.1-0.2-0.1-0.5-0.1-0.8c0,0.2-0.1,0.3-0.1,0.5c0,0.1-0.1,0.2-0.1,0.3
						c-0.2,0.1-0.3,0.3-0.4,0.6c-0.1,0.3-0.1,0.8,0,1.5c0.1,0.5-0.3,0.2-0.3,0.5c0,0.1,0,0.3,0,0.4c0,0.1,0,0.2,0,0.3
						c0,0.2,0.1,0.4,0.1,0.6c0,0.2,0.1,0.4,0.1,0.6c0.1,0.2,0.1,0.4,0.2,0.6c0,0.1,0.1,0.2,0.2,0.4c0.1,0.2,0.2,0.3,0.4,0.5
						c0.4,0.2,0.8,0.5,1.2,0.6c0.2,0.1,0.5,0.1,0.7,0.1c0.1,0,0.2,0,0.4,0c0.1,0,0.2,0,0.4,0c0.2,0,0.3-0.1,0.5-0.1
						c0.1-0.1,0.3-0.1,0.4-0.2c0.2-0.1,0.4-0.2,0.5-0.3c0.1-0.1,0.2-0.1,0.3-0.2c0.1-0.1,0.2-0.1,0.3-0.1c0.1-0.1,0.3-0.1,0.4-0.3
						c0.1-0.1,0.2-0.1,0.2-0.2c0-0.1,0.1-0.1,0.1-0.2C36,39.1,36.1,39,36.1,38.9z"/>
					<path class="st16" d="M29.7,33.1c0,0.5-0.2,0.4-0.3,0.6c-0.1,0.1,0,0.7,0,0.7c-0.1,0.4-0.3,0-0.4,0.4c0,0,0,0.2,0,0.4
						c0,0.2,0,0.3,0,0.4c0,0.5-0.1,0.6-0.2,0.7c0,0.1-0.1,0.1-0.1,0.3c0,0.1,0,0.1,0,0.3c0,0.1,0,0.2,0.1,0.4c0,0.2,0,0.2,0,0.2
						c0,0,0,0,0,0c-0.2-0.1,0.1,0.5,0.2,0.7c0.1,0.2,0.2,0.4,0.3,0.5c0.1,0.1,0.2,0.3,0.3,0.4c0.1,0.1,0.2,0.2,0.3,0.4
						c0.1,0.1,0.2,0.3,0.4,0.4c0.1,0.1,0.2,0.2,0.4,0.3c-0.2-0.2-0.3-0.4-0.4-0.5c-0.1-0.2-0.2-0.3-0.2-0.4
						c-0.1-0.2-0.2-0.4-0.2-0.6c0-0.2-0.1-0.4-0.1-0.6c0-0.2-0.1-0.4-0.1-0.6c0-0.1,0-0.2,0-0.3c0-0.1,0-0.3,0-0.4
						c0-0.3,0.3,0,0.3-0.5c-0.1-0.7-0.1-1.2,0-1.5c0.1-0.3,0.2-0.5,0.4-0.6c0,0,0.1-0.1,0.1-0.3c0-0.1,0.1-0.3,0.1-0.5
						c0-0.2,0-0.4,0-0.6c0-0.1,0-0.2,0.1-0.3c0-0.1,0-0.1,0-0.1c0,0,0,0,0,0c0-0.2,0-0.4,0.1-0.5c0-0.2,0-0.3,0.1-0.5l-0.1,0.2
						l-0.1,0.2c-0.1,0.1-0.2,0.2-0.2,0.4c-0.1,0.1-0.2,0.3-0.2,0.5c0,0.1-0.1,0.2-0.1,0.4C29.7,32.8,29.7,33,29.7,33.1z"/>
					<path class="st17" d="M37,37c0-0.2,0.1-0.4,0.1-0.6c0.1-0.5,0.1-0.4,0.2-0.7c0,0,0,0,0,0c0,0,0,0,0,0c0-0.1,0-0.1,0-0.2
						C37.2,35.9,37.1,36,37,36c-0.1,0.3-0.2,0.6-0.2,0.7c-0.1,0.1-0.1,0.2-0.2,0.2l-0.2,0.2c-0.1,0.2-0.3,0.3-0.4,0.5
						c-0.1,0.1-0.2,0.2-0.3,0.3c-0.1,0.1-0.2,0.2-0.3,0.4c-0.1,0.1-0.2,0.3-0.4,0.5c-0.2,0.2-0.3,0.3-0.6,0.5
						c-0.4,0.3-0.4,0.2-0.5,0.1c0,0-0.1-0.1-0.2-0.1c-0.1,0-0.1,0-0.2,0c-0.1,0-0.2,0-0.3,0.1c-0.2,0-0.4,0.1-0.7,0.1
						c-0.2,0-0.4-0.1-0.5-0.2c0-0.1,0.1-0.1,0.1-0.2c0,0,0-0.1,0-0.1c0,0-0.1-0.1-0.2-0.1c-0.3-0.2-0.6-0.4-0.8-0.7
						c0-0.1-0.1-0.1-0.1-0.2c0-0.1-0.1-0.1-0.1-0.2c0-0.1-0.1-0.1-0.1-0.2l0-0.1l0-0.1c-0.1-0.3-0.1-0.5-0.1-0.7
						c0-0.2,0.1-0.3,0.1-0.4c-0.2-0.6-0.4-1.4-0.6-2.2c-0.1,0.6,0,1.4-0.1,1.5c-0.1,0-0.1,0.1-0.2,0.3C30,35.9,30,36.1,30,36.3
						c0,0.4,0.1,1,0.3,1.6c0.1,0.1,0.1,0.3,0.2,0.4c0.1,0.1,0.1,0.2,0.1,0.3c0,0.1,0.1,0.2,0.1,0.3c0,0.1,0.1,0.2,0.2,0.3
						c0,0,0.1,0.1,0.1,0.1c0,0,0.1,0.1,0.1,0.1c0.1,0.1,0.2,0.2,0.3,0.3c0.1,0,0.1,0.1,0.2,0.1c0.1,0.1,0.2,0.1,0.3,0.1
						c0.1,0,0.2,0.1,0.3,0.1c0.1,0,0.3,0.1,0.4,0.1c-0.3,0-0.6,0-0.8,0c-0.1,0-0.2,0-0.3,0c-0.1,0-0.1,0-0.1,0c0,0,0.1,0.1,0.2,0.1
						c0.1,0,0.2,0.1,0.4,0.1c0.1,0,0.3,0.1,0.5,0.1c0.2,0,0.4,0,0.6,0c0.2,0,0.4-0.1,0.5-0.1c0.2-0.1,0.3-0.1,0.4-0.2
						c0.2-0.1,0.4-0.2,0.5-0.2c0.1,0,0.3-0.1,0.5-0.2c0.2-0.1,0.3-0.2,0.5-0.3c0.4-0.3,0.8-0.7,1.1-1.4c0.1-0.2,0.2-0.3,0.2-0.5
						C36.9,37.3,37,37.1,37,37z"/>
					<path class="st18" d="M32,38.8c0.1,0.1,0.2,0.1,0.2,0.1c0,0,0,0.1,0,0.1c0,0.1-0.2,0.1-0.1,0.2c0,0.1,0.2,0.1,0.5,0.2
						c0.2,0,0.5,0,0.7-0.1c0.1,0,0.2-0.1,0.3-0.1c0.1,0,0.1,0,0.2,0c0.1,0,0.1,0,0.2,0.1c0.1,0.1,0.1,0.2,0.5-0.1
						c0.2-0.2,0.4-0.3,0.6-0.5c0.2-0.2,0.3-0.3,0.4-0.5c0.1-0.1,0.2-0.3,0.3-0.4c0.1-0.1,0.2-0.2,0.3-0.3c0.1-0.2,0.3-0.3,0.4-0.5
						l0.2-0.2c0.1-0.1,0.1-0.2,0.2-0.2c0.1-0.1,0.2-0.4,0.2-0.7c0,0-0.1-0.1-0.1-0.1c0,0-0.1,0.1-0.2,0.4c-0.1,0.2-0.2,0.5-0.3,0.7
						c-0.1,0.1-0.1,0-0.1-0.2c0-0.2,0-0.4,0-0.7c0-0.1,0-0.2,0-0.2c0,0,0,0,0,0c0-0.1,0-0.1,0-0.2c-0.1,0.2-0.1,0.3-0.2,0.4
						c0,0.1,0,0.1-0.1,0.2c0,0,0-0.1,0-0.1c-0.1,0.2-0.2,0.3-0.3,0.4c-0.1,0.1-0.2,0.2-0.3,0.3c0,0.1,0,0.1-0.1,0.2
						c0-0.1,0-0.1,0.1-0.2c-0.1,0.1-0.2,0.3-0.3,0.4c-0.1,0.2-0.2,0.3-0.3,0.5c-0.1,0.1-0.2,0.3-0.4,0.4c-0.1,0.1-0.1,0.1-0.2,0.1
						c-0.1,0-0.1,0.1-0.2,0.1c-0.2,0.1-0.6,0.3-1,0.4c0,0-0.1,0-0.1,0c0,0-0.1,0-0.1,0c-0.1,0-0.1,0-0.2,0c-0.1,0-0.1-0.1-0.1-0.2
						c-0.1,0-0.2,0-0.2,0c0,0-0.1,0-0.1,0c0,0-0.1,0-0.1,0c0,0,0.1-0.1,0.1-0.1c-0.1,0-0.1-0.1-0.2-0.1c0-0.1-0.1-0.1-0.1-0.1
						c0,0,0.1,0,0.1,0c0,0,0.1,0,0.1,0.1l0,0l0,0c-0.1,0-0.1-0.1-0.2-0.1c-0.1,0-0.2,0-0.3,0c0,0,0.1,0,0.1,0c0,0,0,0,0.1,0
						c0,0,0.1,0,0.1,0c0,0,0.1,0,0.1,0c-0.1-0.1-0.2-0.2-0.3-0.4c0,0-0.1,0-0.1-0.1c0,0,0.1,0,0.1,0.1l0-0.1c0,0,0,0-0.1,0
						c0,0,0,0-0.1-0.1c0,0-0.1-0.1-0.2-0.1c-0.1-0.1-0.2-0.2-0.3-0.4c0-0.1,0-0.1,0-0.2c0-0.1,0-0.1,0-0.2c0-0.1-0.1-0.3-0.1-0.5
						c-0.1,0.1-0.1,0.2-0.1,0.4c0,0.2,0,0.4,0.1,0.7l0,0.1l0,0.1c0,0.1,0.1,0.1,0.1,0.2c0,0.1,0.1,0.1,0.1,0.2
						c0,0.1,0.1,0.2,0.1,0.2C31.5,38.4,31.7,38.7,32,38.8z"/>
				</g>
			</g>
		</g>
		<g>
			<path id="XMLID_57_" class="st19" d="M34,33.6c-0.7,0-1.3-0.9-1.3-2.1c0-0.5,0.1-0.9,0.3-1.3c-0.2-0.1-0.4-0.1-0.6-0.1
				c-1.3,0-2.3,1.7-2.3,3.8c0,2.1,1,3.8,2.3,3.8c1.3,0,2.3-1.7,2.3-3.8c0-0.2,0-0.4,0-0.7C34.5,33.5,34.3,33.6,34,33.6z"/>
			<path class="st20" d="M34.1,33.4c-1.4-0.1-1.2-2.4-0.8-3.2c0-0.1-0.1-0.1-0.1-0.1c-1.3-0.4-2.3,0.5-2.8,1.6
				c-0.7,1.5-0.6,3.6,0.3,5c0.6,1,1.8,1.4,2.8,0.7c1.4-0.9,1.6-2.8,1.5-4.3c0-0.2-0.4,0-0.5,0C34.3,33.3,34.2,33.4,34.1,33.4
				c-0.3,0-0.5,0.4-0.1,0.3c0.4-0.1,0.6-0.2,1-0.5c-0.2,0-0.3,0-0.5,0c0.1,1.2-0.3,4.8-2.3,4.1c-1.5-0.5-1.8-2.9-1.6-4.3
				c0.1-0.7,0.3-1.5,0.7-2.1c0.3-0.3,0.8-0.9,1.2-0.7c0.3,0.2,0.1,0.3,0.1,0.6c0,0.2,0,0.4,0,0.6c0,0.9,0.4,2.1,1.4,2.2
				C34.1,33.8,34.4,33.5,34.1,33.4z"/>
		</g>
		<g class="st5">
			<ellipse id="XMLID_56_" class="st6" cx="56.6" cy="34.1" rx="3.5" ry="5.9"/>
			<g class="st7">
				<g class="st7">
					<path class="st8" d="M59.5,36.8l0.1-0.2c0,0-0.1,0-0.1-0.1c0-0.2-0.2,0.4-0.4,0.9C59,37.5,59.2,37.4,59.5,36.8z"/>
					<path class="st9" d="M60.8,34.3c0-0.1,0-0.2,0-0.3c0,0,0,0,0,0C60.7,34.2,60.7,34.3,60.8,34.3z"/>
					<path class="st8" d="M60.1,35c0,0.2,0,0.4-0.1,0.5c0,0.2,0,0.3-0.1,0.5c0.1-0.2,0.1-0.3,0.2-0.4c0.1-0.1,0.2-0.3,0.2-0.5
						c0-0.1,0-0.3,0-0.5c0,0.1,0,0.1,0,0.2c0-0.1,0-0.2,0-0.2c0-0.1,0-0.1,0-0.1c0,0,0,0.2-0.1,0.4c0,0.2-0.1,0.4-0.1,0.6
						c0-0.2,0-0.5,0-0.7c0,0.1,0,0.1-0.1,0.2c0,0.1,0,0.2,0,0.3L60.1,35z"/>
					<path class="st8" d="M57.8,38.3C57.8,38.3,57.9,38.3,57.8,38.3c0.1-0.1,0.2-0.2,0.2-0.4L57.9,38l-0.1,0.1
						C57.8,38.2,57.8,38.2,57.8,38.3l-0.1,0c0,0,0,0,0-0.1l0,0c0,0-0.1,0.1-0.1,0.1l0.1,0c-0.1,0-0.1,0.1-0.2,0.1
						c0,0-0.1,0.1-0.1,0.1C57.5,38.5,57.7,38.4,57.8,38.3z"/>
					<path class="st10" d="M56,38.7c0,0.1,0,0.1-0.1,0.1c0.1,0,0.2,0.1,0.2,0.1c0.1,0,0.2,0.1,0.2,0.1c-0.1,0.1,0.1,0.3,0.5,0.3
						c0.4,0,0.8-0.2,1-0.3c0.2-0.1,0.5-0.3,0.8-0.6c0.3-0.3,0.5-0.6,0.7-0.8c0-0.1,0-0.1,0.1-0.4c-0.1,0.1-0.2,0.3-0.2,0.5
						c0,0,0,0.1,0,0.1c0,0,0-0.1,0-0.1c0-0.1,0.1-0.3,0.2-0.4c0,0.1-0.1,0.1-0.1,0.1c0,0,0-0.1,0-0.1c-0.2,0.2-0.3,0.4-0.5,0.6
						c-0.2,0.1-0.3,0.2-0.4,0.2l-0.1,0.1c-0.4,0.5-0.6,0.5-0.6,0.4C57.5,38.8,57.2,39,57,39c-0.3,0-0.5-0.1-0.7-0.2c0,0-0.1,0-0.1,0
						C56.2,38.8,56.1,38.8,56,38.7C56.1,38.8,56.1,38.8,56,38.7z"/>
					<path class="st11" d="M60.2,34.1c0.1,0,0.1-0.2,0.2-0.4c0-0.1,0.1-0.2,0.1-0.3c0-0.1,0-0.3,0.1-0.4c0.1-0.6,0-1.4-0.3-2.2
						c-0.3-0.8-0.7-1.6-1.3-2.3c-0.3-0.3-0.7-0.7-1.3-0.9c-0.5-0.2-1.1-0.3-1.7-0.2c0.1,0,0.1,0,0.2,0.1c0,0,0,0.1-0.1,0.1
						c-0.1,0-0.2,0.1-0.3,0.2c-0.1,0-0.1,0.1-0.2,0.1c-0.1,0-0.2,0.1-0.3,0.2c-0.1,0.1-0.2,0.1-0.3,0.2c-0.1,0.1-0.2,0.2-0.3,0.2
						c-0.1,0.1-0.2,0.2-0.3,0.2c-0.1,0.1-0.1,0.1-0.1,0.2c-0.3,0.4-0.4,0.7-0.5,1c-0.1,0.3-0.2,0.6-0.4,1.1c0.1-0.2,0.2-0.2,0.3-0.3
						c0.3-0.5,0.7-1.1,1.2-1.8c0.1-0.1,0.3-0.2,0.3-0.2c0.1,0,0.1,0-0.1,0.2c0.3-0.2,0.6-0.3,0.8-0.5c0.1,0,0.3-0.1,0.4-0.1l0.2,0
						l0.1,0l0.1,0c0.1,0,0.2,0,0.3,0c0.1,0,0.1,0,0.2,0.1c0.1,0,0.1,0,0.1,0.1c0,0,0.1,0,0.1,0.1c0.1,0.1,0.1,0.1,0.1,0.2
						c0,0.1-0.2,0.1,0,0.3c0,0.1,0.1,0.1,0.2,0.2c0.4,0.2,0.8,0.5,1.1,0.9c0.3,0.4,0.6,0.8,0.8,1.3c0.1,0.2,0.1,0.6,0.2,0.8
						c0.1,0.4,0.2,1,0.3,1.4C60.1,33.9,60.2,34.1,60.2,34.1z"/>
					<path class="st12" d="M52.3,33.5c0-0.3,0-0.6,0-1c-0.1,0.5-0.2,1-0.3,1.6c0,0.1,0.1,0.3,0.1,0.4C52.1,34.1,52.2,33.7,52.3,33.5
						z"/>
					<path class="st12" d="M56.6,28.8c0.1-0.1,0-0.1-0.1-0.1c-0.1,0-0.1,0-0.2,0c0,0-0.1,0-0.1,0c0,0-0.1,0-0.1,0
						c-0.6,0.2-0.9,0.5-1.3,0.7c0,0-0.2,0.2-0.3,0.3c0,0-0.2,0.1-0.1-0.1c-0.1,0.1-0.1,0.2-0.2,0.3c0,0-0.1,0.1-0.1,0.1
						c0,0,0,0.1,0,0.1c-0.2,0.3,0.1-0.3-0.1-0.1c-0.3,0.6-0.5,1.2-0.6,1.6c-0.1,0.2-0.2,0.3-0.2,0.3c-0.1,0-0.1,0-0.1-0.1
						c0-0.1,0-0.3,0-0.4c0-0.2,0-0.3,0-0.4c0-0.3,0.3-0.9,0.6-1.4c-0.2,0.1-0.6,0.8-0.4,0.4c0.1-0.2,0.2-0.4,0.3-0.6
						c0-0.1,0.1-0.2,0.1-0.3c0-0.1,0.1-0.2,0.1-0.2c-0.4,0.5-0.7,1.1-0.9,1.7c-0.2,0.6-0.3,1.1-0.4,1.4c0,0.1-0.1,0.2-0.1,0.3
						c0,0.1-0.1,0.2-0.1,0.3c0,0.4,0,0.7,0,1c-0.1,0.2-0.2,0.6-0.2,1c0,0.2,0.1,0.3,0.1,0.4c0.1,0.2,0.1-0.1,0.1-0.4
						c0-0.1,0-0.2,0-0.3c0-0.1,0-0.2,0-0.3c0-0.2,0-0.3,0.1-0.4c0,0.7,0.1,1.2,0.2,1.3c0.1,0.2,0.2,0.1,0.3-0.1
						c0.1-0.2,0.1-0.3,0.1-0.5c0.1-0.2,0.1-0.4,0.2-0.7c0-0.1,0-0.3,0.1-0.5c0-0.2,0-0.4,0.1-0.6c0,0.1,0,0.5,0,0.4
						c0.2-0.7,0.4-0.9,0.6-1.7c0,0,0.1,0,0,0.2c0-0.2,0.1-0.3,0.1-0.3c0,0,0.1-0.1,0.2-0.3c0.1-0.1,0.2-0.1,0.3-0.1
						c0.1,0,0.2-0.1,0.3-0.4c0,0,0-0.1,0.1-0.1c0,0,0-0.1,0.1-0.1c0,0,0.1-0.1,0.1-0.1c0.2-0.3,0.5-0.7,0.9-0.8
						c0.3-0.1,0.6-0.1,0.9-0.1c0,0-0.1,0-0.1,0C56.8,28.8,56.8,28.8,56.6,28.8C56.7,28.8,56.7,28.8,56.6,28.8z"/>
					<path class="st13" d="M57.4,28.9c-0.2-0.2,0-0.2,0-0.3c0,0,0-0.1-0.1-0.2c0,0-0.1,0-0.1-0.1c0,0-0.1,0-0.1-0.1
						c-0.1,0-0.1,0-0.2-0.1c-0.1,0-0.2,0-0.3,0l-0.1,0l-0.1,0l-0.2,0c-0.1,0-0.3,0.1-0.4,0.1c-0.3,0.1-0.5,0.2-0.8,0.5
						c0.2-0.2,0.2-0.2,0.1-0.2c-0.1,0-0.3,0.1-0.3,0.2c-0.6,0.7-0.9,1.3-1.2,1.8c-0.1,0.2-0.2,0.2-0.3,0.3c0.1-0.5,0.3-0.8,0.4-1.1
						c0.1-0.3,0.2-0.6,0.5-1c0,0,0.1-0.1,0.1-0.2c0.1-0.1,0.2-0.2,0.3-0.2c0.1-0.1,0.2-0.2,0.3-0.2c0.1-0.1,0.2-0.1,0.3-0.2
						c0.1-0.1,0.2-0.1,0.3-0.2c0.1,0,0.1-0.1,0.2-0.1c0.1-0.1,0.2-0.1,0.3-0.2c0.1,0,0.1-0.1,0.1-0.1c0,0-0.1-0.1-0.2-0.1
						c-0.2,0-0.4,0.1-0.6,0.2c-0.1,0-0.2,0.1-0.3,0.1l-0.3,0.2c-0.2,0.1-0.3,0.2-0.5,0.4c-0.1,0.1-0.3,0.3-0.4,0.4
						c0,0.1-0.1,0.1-0.1,0.2c0,0.1-0.1,0.2-0.1,0.2c0,0.1-0.1,0.2-0.1,0.3c-0.1,0.2-0.2,0.4-0.3,0.6c-0.1,0.4,0.3-0.3,0.4-0.4
						C53.4,30,53,30.7,53,31c0,0.1,0,0.3,0,0.4c0,0.2,0,0.3,0,0.4c0,0.1,0.1,0.2,0.1,0.1c0.1,0,0.1-0.2,0.2-0.3
						c0.2-0.4,0.4-0.9,0.6-1.6c0.2-0.2-0.1,0.4,0.1,0.1c0,0,0-0.1,0-0.1c0,0,0.1-0.1,0.1-0.1c0.1-0.1,0.1-0.2,0.2-0.3
						c-0.1,0.2,0.1,0,0.1,0.1c0.1-0.1,0.3-0.3,0.3-0.3c0.4-0.2,0.7-0.5,1.3-0.7c0,0,0.1,0,0.1,0c0,0,0.1,0,0.1,0c0.1,0,0.1,0,0.2,0
						c0.1,0,0.2,0.1,0.1,0.1c0,0,0,0,0.1,0c0,0,0.1,0,0.1,0c0,0,0.1,0,0.1,0c0.2,0,0.5,0.1,0.7,0.2C57.5,29,57.5,29,57.4,28.9z"/>
					<path class="st14" d="M54.9,30.1c-0.2,0.2-0.2,0.3-0.3,0.4c-0.1,0-0.2,0-0.3,0.1c-0.1,0.2-0.1,0.2-0.2,0.3c0,0-0.1,0.1-0.1,0.3
						c0.1-0.2,0-0.2,0-0.2c-0.3,0.8-0.4,1.1-0.6,1.7c0,0.1,0-0.3,0-0.4c0,0.2,0,0.4-0.1,0.6c0,0.2,0,0.4-0.1,0.5
						c-0.1,0.3-0.1,0.5-0.2,0.7c0,0.2-0.1,0.4-0.1,0.5c-0.1,0.2-0.2,0.3-0.3,0.1c-0.1-0.2-0.2-0.6-0.2-1.3c0,0.1-0.1,0.2-0.1,0.4
						c0,0.1,0,0.2,0,0.3c0,0.1,0,0.2,0,0.3c0,0.3,0,0.6-0.1,0.4c0-0.1-0.1-0.2-0.1-0.4c0,0.5,0.1,1.1,0.2,1.6
						c0.1,0.6,0.3,1.1,0.5,1.7c0.1,0,0.1,0,0-0.2c0-0.2-0.1-0.3-0.1-0.4c0-0.1,0-0.2,0-0.3c0-0.1,0-0.2,0.1-0.3
						c0.1-0.1,0.2-0.2,0.2-0.7c0-0.1,0-0.3,0-0.4c0-0.2,0-0.3,0-0.4c0.1-0.4,0.3,0,0.4-0.4c0,0,0-0.7,0-0.7c0.1-0.2,0.2-0.1,0.3-0.6
						c0-0.2,0.1-0.3,0.1-0.4c0-0.1,0.1-0.3,0.1-0.4c0.1-0.2,0.2-0.4,0.2-0.5c0.1-0.1,0.2-0.3,0.2-0.4l0.1-0.2l0.1-0.2
						c0.1-0.6,0.3-1.1,0.6-1.6c0,0-0.1,0.1-0.1,0.1C55,30,55,30,54.9,30.1C55,30.1,55,30.1,54.9,30.1z"/>
					<path class="st15" d="M60.2,39.3c0-0.1,0.1-0.2,0.1-0.2c0-0.1,0.1-0.2,0.1-0.2c0.1-0.2,0.2-0.3,0.2-0.5
						c-0.4,0.7-0.8,1.1-1.1,1.4c-0.2,0.1-0.4,0.3-0.5,0.3c-0.2,0.1-0.3,0.1-0.5,0.2c0,0-0.2,0.1-0.5,0.2c-0.1,0.1-0.3,0.1-0.4,0.2
						c-0.2,0.1-0.4,0.1-0.5,0.1c-0.2,0-0.4,0-0.6,0c-0.2,0-0.4,0-0.5-0.1c-0.1,0-0.3-0.1-0.4-0.1c-0.1,0-0.2-0.1-0.2-0.1
						c0,0,0.1,0,0.1,0c0.1,0,0.2,0,0.3,0c0.2,0,0.5,0.1,0.8,0c-0.1,0-0.3,0-0.4-0.1c-0.1,0-0.2-0.1-0.3-0.1c-0.1,0-0.2-0.1-0.3-0.1
						c-0.1-0.1-0.1-0.1-0.2-0.1c-0.1-0.1-0.2-0.2-0.3-0.3c0,0-0.1-0.1-0.1-0.1c0,0-0.1-0.1-0.1-0.1c-0.1-0.1-0.1-0.2-0.2-0.3
						c0-0.1-0.1-0.2-0.1-0.3c-0.1-0.1-0.1-0.2-0.1-0.3c-0.1-0.1-0.1-0.3-0.2-0.4c-0.3-0.6-0.3-1.2-0.3-1.6c0-0.2,0-0.4,0.1-0.6
						c0.1-0.1,0.1-0.2,0.2-0.3c0.1-0.1,0.1-0.8,0.1-1.5c-0.1-0.2-0.1-0.5-0.1-0.8c0,0.2-0.1,0.3-0.1,0.5c0,0.1-0.1,0.2-0.1,0.3
						c-0.2,0.1-0.3,0.3-0.4,0.6c-0.1,0.3-0.1,0.8,0,1.5c0.1,0.5-0.3,0.2-0.3,0.5c0,0.1,0,0.3,0,0.4c0,0.1,0,0.2,0,0.3
						c0,0.2,0.1,0.4,0.1,0.6c0,0.2,0.1,0.4,0.1,0.6c0.1,0.2,0.1,0.4,0.2,0.6c0,0.1,0.1,0.2,0.2,0.4c0.1,0.2,0.2,0.3,0.4,0.5
						c0.4,0.2,0.8,0.5,1.2,0.6c0.2,0.1,0.5,0.1,0.7,0.1c0.1,0,0.2,0,0.4,0c0.1,0,0.2,0,0.4,0c0.2,0,0.3-0.1,0.5-0.1
						c0.1-0.1,0.3-0.1,0.4-0.2c0.2-0.1,0.4-0.2,0.5-0.3c0.1-0.1,0.2-0.1,0.3-0.2c0.1-0.1,0.2-0.1,0.3-0.1c0.1-0.1,0.3-0.1,0.4-0.3
						c0.1-0.1,0.2-0.1,0.2-0.2c0-0.1,0.1-0.1,0.1-0.2C60.1,39.4,60.1,39.4,60.2,39.3z"/>
					<path class="st16" d="M53.7,33.5c0,0.5-0.2,0.4-0.3,0.6c-0.1,0.1,0,0.7,0,0.7c-0.1,0.4-0.3,0-0.4,0.4c0,0,0,0.2,0,0.4
						c0,0.2,0,0.3,0,0.4c0,0.5-0.1,0.6-0.2,0.7c0,0.1-0.1,0.1-0.1,0.3c0,0.1,0,0.1,0,0.3c0,0.1,0,0.2,0.1,0.4c0,0.2,0,0.2,0,0.2
						c0,0,0,0,0,0c-0.2-0.1,0.1,0.5,0.2,0.7c0.1,0.2,0.2,0.4,0.3,0.5c0.1,0.1,0.2,0.3,0.3,0.4c0.1,0.1,0.2,0.2,0.3,0.4
						c0.1,0.1,0.2,0.3,0.4,0.4c0.1,0.1,0.2,0.2,0.4,0.3c-0.2-0.2-0.3-0.4-0.4-0.5c-0.1-0.2-0.2-0.3-0.2-0.4
						c-0.1-0.2-0.2-0.4-0.2-0.6c0-0.2-0.1-0.4-0.1-0.6c0-0.2-0.1-0.4-0.1-0.6c0-0.1,0-0.2,0-0.3c0-0.1,0-0.3,0-0.4
						c0-0.3,0.3,0,0.3-0.5c-0.1-0.7-0.1-1.2,0-1.5c0.1-0.3,0.2-0.5,0.4-0.6c0,0,0.1-0.1,0.1-0.3c0-0.1,0.1-0.3,0.1-0.5
						c0-0.2,0-0.4,0-0.6c0-0.1,0-0.2,0.1-0.3c0-0.1,0-0.1,0-0.1c0,0,0,0,0,0c0-0.2,0-0.4,0.1-0.5c0-0.2,0-0.3,0.1-0.5l-0.1,0.2
						l-0.1,0.2c-0.1,0.1-0.2,0.2-0.2,0.4c-0.1,0.1-0.2,0.3-0.2,0.5c0,0.1-0.1,0.2-0.1,0.4C53.7,33.2,53.7,33.3,53.7,33.5z"/>
					<path class="st17" d="M61.1,37.3c0-0.2,0.1-0.4,0.1-0.6c0.1-0.5,0.1-0.4,0.2-0.7c0,0,0,0,0,0c0,0,0,0,0,0c0-0.1,0-0.1,0-0.2
						c-0.1,0.2-0.2,0.4-0.3,0.3c-0.1,0.3-0.2,0.6-0.2,0.7c-0.1,0.1-0.1,0.2-0.2,0.2l-0.2,0.2c-0.1,0.2-0.3,0.3-0.4,0.5
						c-0.1,0.1-0.2,0.2-0.3,0.3c-0.1,0.1-0.2,0.2-0.3,0.4c-0.1,0.1-0.2,0.3-0.4,0.5c-0.2,0.2-0.3,0.3-0.6,0.5
						c-0.4,0.3-0.4,0.2-0.5,0.1c0,0-0.1-0.1-0.2-0.1c-0.1,0-0.1,0-0.2,0c-0.1,0-0.2,0-0.3,0.1c-0.2,0-0.4,0.1-0.7,0.1
						c-0.2,0-0.4-0.1-0.5-0.2c0-0.1,0.1-0.1,0.1-0.2c0,0,0-0.1,0-0.1c0,0-0.1-0.1-0.2-0.1c-0.3-0.2-0.6-0.4-0.8-0.7
						c0-0.1-0.1-0.1-0.1-0.2c0-0.1-0.1-0.1-0.1-0.2c0-0.1-0.1-0.1-0.1-0.2l0-0.1l0-0.1c-0.1-0.3-0.1-0.5-0.1-0.7
						c0-0.2,0.1-0.3,0.1-0.4c-0.2-0.6-0.4-1.4-0.6-2.2c-0.1,0.6,0,1.4-0.1,1.5c-0.1,0-0.1,0.1-0.2,0.3C54,36.3,54,36.4,54,36.7
						c0,0.4,0.1,1,0.3,1.6c0.1,0.1,0.1,0.3,0.2,0.4c0.1,0.1,0.1,0.2,0.1,0.3c0,0.1,0.1,0.2,0.1,0.3c0,0.1,0.1,0.2,0.2,0.3
						c0,0,0.1,0.1,0.1,0.1c0,0,0.1,0.1,0.1,0.1c0.1,0.1,0.2,0.2,0.3,0.3c0.1,0,0.1,0.1,0.2,0.1c0.1,0.1,0.2,0.1,0.3,0.1
						c0.1,0,0.2,0.1,0.3,0.1c0.1,0,0.3,0.1,0.4,0.1c-0.3,0-0.6,0-0.8,0c-0.1,0-0.2,0-0.3,0c-0.1,0-0.1,0-0.1,0c0,0,0.1,0.1,0.2,0.1
						c0.1,0,0.2,0.1,0.4,0.1c0.1,0,0.3,0.1,0.5,0.1c0.2,0,0.4,0,0.6,0c0.2,0,0.4-0.1,0.5-0.1c0.2-0.1,0.3-0.1,0.4-0.2
						c0.2-0.1,0.4-0.2,0.5-0.2c0.1,0,0.3-0.1,0.5-0.2c0.2-0.1,0.3-0.2,0.5-0.3c0.4-0.3,0.8-0.7,1.1-1.4c0.1-0.2,0.2-0.3,0.2-0.5
						C60.9,37.7,61,37.5,61.1,37.3z"/>
					<path class="st18" d="M56.1,39.2c0.1,0.1,0.2,0.1,0.2,0.1c0,0,0,0.1,0,0.1c0,0.1-0.2,0.1-0.1,0.2c0,0.1,0.2,0.1,0.5,0.2
						c0.2,0,0.5,0,0.7-0.1c0.1,0,0.2-0.1,0.3-0.1c0.1,0,0.1,0,0.2,0c0.1,0,0.1,0,0.2,0.1c0.1,0.1,0.1,0.2,0.5-0.1
						c0.2-0.2,0.4-0.3,0.6-0.5c0.2-0.2,0.3-0.3,0.4-0.5c0.1-0.1,0.2-0.3,0.3-0.4c0.1-0.1,0.2-0.2,0.3-0.3c0.1-0.2,0.3-0.3,0.4-0.5
						l0.2-0.2c0.1-0.1,0.1-0.2,0.2-0.2c0.1-0.1,0.2-0.4,0.2-0.7c0,0-0.1-0.1-0.1-0.1c0,0-0.1,0.1-0.2,0.4c-0.1,0.2-0.2,0.5-0.3,0.7
						c-0.1,0.1-0.1,0-0.1-0.2c0-0.2,0-0.4,0-0.7c0-0.1,0-0.2,0-0.2c0,0,0,0,0,0c0-0.1,0-0.1,0-0.2c-0.1,0.2-0.1,0.3-0.2,0.4
						c0,0.1,0,0.1-0.1,0.2c0,0,0-0.1,0-0.1c-0.1,0.2-0.2,0.3-0.3,0.4c-0.1,0.1-0.2,0.2-0.3,0.3c0,0.1,0,0.1-0.1,0.2
						c0-0.1,0-0.1,0.1-0.2c-0.1,0.1-0.2,0.3-0.3,0.4c-0.1,0.2-0.2,0.3-0.3,0.5c-0.1,0.1-0.2,0.3-0.4,0.4c-0.1,0.1-0.1,0.1-0.2,0.1
						c-0.1,0-0.1,0.1-0.2,0.1c-0.2,0.1-0.6,0.3-1,0.4c0,0-0.1,0-0.1,0c0,0-0.1,0-0.1,0c-0.1,0-0.1,0-0.2,0c-0.1,0-0.1-0.1-0.1-0.2
						c-0.1,0-0.2,0-0.2,0c0,0-0.1,0-0.1,0c0,0-0.1,0-0.1,0c0,0,0.1-0.1,0.1-0.1c-0.1,0-0.1-0.1-0.2-0.1c0-0.1-0.1-0.1-0.1-0.1
						c0,0,0.1,0,0.1,0c0,0,0.1,0,0.1,0.1l0,0l0,0c-0.1,0-0.1-0.1-0.2-0.1c-0.1,0-0.2,0-0.3,0c0,0,0.1,0,0.1,0c0,0,0,0,0.1,0
						c0,0,0.1,0,0.1,0c0,0,0.1,0,0.1,0c-0.1-0.1-0.2-0.2-0.3-0.4c0,0-0.1,0-0.1-0.1c0,0,0.1,0,0.1,0.1l0-0.1c0,0,0,0-0.1,0
						c0,0,0,0-0.1-0.1c0,0-0.1-0.1-0.2-0.1c-0.1-0.1-0.2-0.2-0.3-0.4c0-0.1,0-0.1,0-0.2c0-0.1,0-0.1,0-0.2c0-0.1-0.1-0.3-0.1-0.5
						c-0.1,0.1-0.1,0.2-0.1,0.4c0,0.2,0,0.4,0.1,0.7l0,0.1l0,0.1c0,0.1,0.1,0.1,0.1,0.2c0,0.1,0.1,0.1,0.1,0.2
						c0,0.1,0.1,0.2,0.1,0.2C55.5,38.8,55.7,39.1,56.1,39.2z"/>
				</g>
			</g>
		</g>
		<g>
			<path id="XMLID_55_" class="st19" d="M58,33.8c-0.7,0-1.3-0.9-1.3-2.1c0-0.5,0.1-0.9,0.3-1.3c-0.2-0.1-0.4-0.1-0.6-0.1
				c-1.3,0-2.3,1.7-2.3,3.8c0,2.1,1,3.8,2.3,3.8s2.3-1.7,2.3-3.8c0-0.2,0-0.4,0-0.7C58.5,33.6,58.2,33.8,58,33.8z"/>
			<path class="st20" d="M58.1,33.6c-1.3-0.1-1.2-2.3-0.8-3.1c0-0.1,0-0.2-0.1-0.2c-3.5-1.1-3.8,4.8-2.5,6.7c0.6,1,1.8,1.4,2.8,0.7
				c1.4-0.9,1.6-2.9,1.5-4.3c0-0.2-0.3-0.1-0.4-0.1c-0.2,0.1-0.4,0.2-0.6,0.3C57.6,33.6,57.7,34,58,34c0.4-0.1,0.6-0.2,0.8-0.4
				c-0.1,0-0.3,0-0.4-0.1c0.1,1.2-0.1,2.6-0.8,3.5c-0.9,1-2,0.5-2.6-0.5c-0.6-1-0.7-2.2-0.5-3.3c0.2-1.1,0.9-3,2.4-2.6
				c0-0.1-0.1-0.1-0.1-0.2c-0.5,1.1-0.5,3.4,1.1,3.6C58.2,34,58.4,33.6,58.1,33.6z"/>
		</g>
		<g>
			<polygon id="XMLID_54_" class="st1" points="50.4,45.5 44.6,53.1 38.9,45.5 44.6,39.8 			"/>
			<path class="st2" d="M50.2,45.5c-1.9,2.5-3.8,5.1-5.8,7.6c0.2,0,0.3,0,0.5,0c-1.5-2-3.1-4-4.6-6.1c-0.3-0.4-0.6-0.9-1-1.3
				c-0.1-0.1-0.1-0.2-0.2-0.2c0.1,0.2-0.1,0.2,0.1,0c0.4-0.3,0.8-0.8,1.1-1.1c0.6-0.6,1.2-1.2,1.8-1.8c0.9-0.9,1.8-1.8,2.7-2.7
				c-0.2,0-0.3,0-0.5,0c1.9,1.9,3.8,3.8,5.8,5.8c0.2,0.2,0.6-0.1,0.5-0.2c-1.9-1.9-3.8-3.8-5.8-5.8c-0.1-0.1-0.3-0.1-0.5,0
				c-1.9,1.9-3.8,3.8-5.8,5.8c0,0-0.1,0.1,0,0.2c1.9,2.5,3.8,5.1,5.8,7.6c0.1,0.1,0.4,0.1,0.5,0c1.9-2.5,3.8-5.1,5.8-7.6
				C50.8,45.3,50.3,45.3,50.2,45.5z"/>
		</g>
		<polygon id="XMLID_53_" class="st21" points="50.1,45.6 44.7,52.7 44.6,40.1 		"/>
		<path id="XMLID_52_" class="st22" d="M35.6,13.6c-1.5-0.7-1.9,0-0.5,0.6c1.4,0.9,4,2.8,6.1,6.1c1.8,2.9,3.1,6.6,3.4,7.7
			c-0.2-1.7-0.7-5-2.8-8.4C39.6,16.4,37,14.5,35.6,13.6z"/>
		<path id="XMLID_51_" class="st22" d="M54.1,12.8c1.5-0.7,1.9,0,0.5,0.6c-1.4,0.9-4,2.8-6.1,6.1c-1.8,2.9-3.1,6.6-3.4,7.7
			c0.2-1.7,0.7-5,2.8-8.4C50,15.6,52.6,13.7,54.1,12.8z"/>
		<path class="st2" d="M38.1,55.7c1.3,0.6,2.8,0.6,4.2,0c0.1-0.1-0.3-0.8-0.6-0.7c-1.3,0.6-2.7,0.6-4,0
			C37.5,54.9,37.9,55.6,38.1,55.7L38.1,55.7z"/>
		<path class="st2" d="M46.5,55.7c1.3,0.6,2.8,0.7,4.2,0c0.1-0.1-0.4-0.8-0.6-0.7c-1.3,0.6-2.7,0.6-4,0
			C45.9,54.9,46.3,55.6,46.5,55.7L46.5,55.7z"/>
		<path class="st2" d="M42.5,59.2c1.3,0.7,2.9,0.7,4.2,0c0.1-0.1-0.4-0.8-0.6-0.7c-1.3,0.7-2.7,0.7-4,0C42,58.5,42.4,59.1,42.5,59.2
			L42.5,59.2z"/>
		<path class="st2" d="M36.6,62.5c1.3,0.6,2.8,0.6,4.2,0c0.1,0-0.3-0.8-0.6-0.7c-1.3,0.5-2.7,0.5-4,0C36,61.7,36.4,62.4,36.6,62.5
			L36.6,62.5z"/>
		<path class="st2" d="M47.9,62.3c1.3,0.6,2.8,0.6,4.2,0c0.1-0.1-0.3-0.8-0.6-0.7c-1.3,0.6-2.7,0.6-4,0
			C47.3,61.6,47.7,62.3,47.9,62.3L47.9,62.3z"/>
	</g>
</g>
<g>
	<g>
		<path id="XMLID_48_" class="st23" d="M103.1,50.1c0-11.2,7-15.6,12.7-15.6c4.1,0,6.5,1.5,8.5,3.8v-8.4h-3.8v-4.8h10.7
			c1,0,1.4,0.7,1.4,1.9v31.3c0,0.6,0.7,1.5,1.4,1.5h2v4.7h-10c-0.8,0-1.4-1.2-1.5-3.3c-1.9,2.2-4.9,3.8-9,3.8
			C109.5,65,103.1,61.5,103.1,50.1z M124.3,57.7V41.4c-1.5-0.7-3.5-1.3-5.5-1.3c-3.9,0-7.4,2.3-7.4,9.8c0,8.1,3.3,10.1,6.7,10.1
			C120.8,60,122.7,59.1,124.3,57.7z"/>
		<path id="XMLID_45_" class="st23" d="M137.1,56c0-6.2,4.8-9,11.7-9c2.5,0,4.2,0.2,6,0.7v-3.1c0-3-1.6-4.4-5.1-4.4
			c-3.6,0-5.4,1.4-6.8,2.6h-3.8v-6c2.8-1.2,6.5-2.3,12.2-2.3c7.7,0,11.7,2.5,11.7,9.2v14.7c0,0.7,0.7,1.4,1.4,1.4h1.6v3.9
			c-1.1,0.7-2.8,1.1-5,1.1c-3.4,0-5.2-1.4-5.9-3.7c-2.2,2.7-5,3.7-8.6,3.7C141.1,64.9,137.1,61.9,137.1,56z M154.8,58v-6.3
			c-1.3-0.2-2.8-0.3-4.3-0.3c-3.3,0-5.4,1.4-5.4,4.3s1.7,4.4,4.5,4.4C151.7,60,153.4,59.3,154.8,58z"/>
		<path id="XMLID_43_" class="st23" d="M164.4,35h3.5v-7.9h8.2V35h6v5h-6v16.2c0,3.2,1.1,3.7,4.2,3.7h2v4.4c-1.2,0.4-3,0.7-5.3,0.7
			c-5.7,0-9.1-1.8-9.1-7.9V39.9h-3.5V35z"/>
		<path id="XMLID_40_" class="st23" d="M183.5,56c0-6.2,4.8-9,11.7-9c2.5,0,4.2,0.2,6,0.7v-3.1c0-3-1.6-4.4-5.1-4.4
			c-3.6,0-5.4,1.4-6.8,2.6h-3.8v-6c2.8-1.2,6.5-2.3,12.2-2.3c7.7,0,11.7,2.5,11.7,9.2v14.7c0,0.7,0.7,1.4,1.4,1.4h1.6v3.9
			c-1.1,0.7-2.8,1.1-5,1.1c-3.4,0-5.2-1.4-5.9-3.7c-2.2,2.7-5,3.7-8.6,3.7C187.5,64.9,183.5,61.9,183.5,56z M201.2,58v-6.3
			c-1.3-0.2-2.8-0.3-4.3-0.3c-3.3,0-5.4,1.4-5.4,4.3s1.7,4.4,4.5,4.4C198.1,60,199.8,59.3,201.2,58z"/>
		<path id="XMLID_38_" class="st23" d="M215.6,60.4c0-2.5,2-4.6,4.6-4.6c2.5,0,4.6,2,4.6,4.6c0,2.5-2.1,4.5-4.6,4.5
			C217.7,64.9,215.6,62.9,215.6,60.4z"/>
	</g>
	<g>
		<path id="XMLID_36_" class="st23" d="M243.9,45.3l-5.9,19.2h-7l-6.7-23.1c-0.3-0.9-1-1.6-1.8-1.6h-1.1v-5h13.1v5H232l3.9,14.8h0.1
			l5.7-19.7h6.3l5.7,19.7h0.1l3-11c0.7-2.6,0.5-3.7-1.9-3.7h-0.8v-5h12.3v5h-1c-0.9,0-1.8,0.5-2.1,1.7l-6.7,22.9h-7L244,45.3H243.9z
			"/>
		<path id="XMLID_33_" class="st23" d="M265.8,49.9c0-9.5,6.9-15.4,15.6-15.4c8.6,0,15.6,5.9,15.6,15.4c0,9.5-6.9,15.1-15.6,15.1
			C272.7,65,265.8,59.4,265.8,49.9z M288.5,50c0-6.7-3.1-10-7.2-10c-4.1,0-7.2,3.3-7.2,10c0,6.7,3.1,9.8,7.2,9.8
			C285.4,59.8,288.5,56.6,288.5,50z"/>
		<path id="XMLID_6_" class="st23" d="M297,59.9h2c0.7,0,1.4-0.8,1.4-1.4v-17c0-0.6-0.7-1.5-1.4-1.5h-2.2v-5h10.1
			c1,0,1.6,0.8,1.7,4.3c2-2.4,4.3-4.6,8.2-4.6c0.6,0,1.2,0.1,1.8,0.3v6.1h-1.4c-4.3,0-6.9,0.9-8.5,1.8v17h4.1v4.7H297V59.9z"/>
		<path id="XMLID_4_" class="st23" d="M319.1,59.9h2.2c0.7,0,1.4-0.8,1.4-1.4v-27c0-0.6-0.7-1.5-1.4-1.5H319v-4.8h10.6
			c1,0,1.4,0.7,1.4,1.9v31.5c0,0.7,0.8,1.4,1.4,1.4h2.3v4.7h-15.6V59.9z"/>
		<path id="XMLID_1_" class="st23" d="M335.2,50.1c0-11.2,7-15.6,12.7-15.6c4.1,0,6.5,1.5,8.5,3.8v-8.4h-3.8v-4.8h10.7
			c1,0,1.4,0.7,1.4,1.9v31.3c0,0.6,0.7,1.5,1.4,1.5h2v4.7h-10c-0.8,0-1.4-1.2-1.5-3.3c-1.9,2.2-4.9,3.8-9,3.8
			C341.6,65,335.2,61.5,335.2,50.1z M356.4,57.7V41.4c-1.5-0.7-3.5-1.3-5.5-1.3c-3.9,0-7.4,2.3-7.4,9.8c0,8.1,3.3,10.1,6.7,10.1
			C352.8,60,354.8,59.1,356.4,57.7z"/>
	</g>
</g>
<g>
	<path class="st24" d="M379,42.6l3-24.9h2.3c0.4,0,0.8,0.1,1.1,0.3c0.3,0.2,0.4,0.5,0.4,0.9c0,0.1,0,0.2,0,0.4c0,0.2,0,0.5,0,0.9
		c0,0.4,0,1-0.1,1.7c0.9-1.4,1.9-2.4,3.1-3.2c1.1-0.8,2.3-1.2,3.6-1.2c0.8,0,1.5,0.1,2.1,0.4c0.6,0.3,1.2,0.7,1.6,1.3
		c0.4,0.6,0.8,1.3,1,2.2c0.2,0.9,0.4,1.9,0.4,3.1c0,1.1-0.1,2.1-0.3,3.1s-0.5,2-0.9,2.9s-0.9,1.8-1.4,2.5c-0.6,0.8-1.2,1.4-1.9,2
		c-0.7,0.6-1.4,1-2.2,1.3c-0.8,0.3-1.6,0.5-2.4,0.5c-0.8,0-1.6-0.1-2.3-0.4s-1.3-0.7-1.8-1.2l-0.9,7.5H379z M390.6,21.1
		c-0.5,0-1,0.2-1.5,0.5c-0.5,0.3-1,0.8-1.5,1.4c-0.5,0.6-0.9,1.3-1.3,2.1c-0.4,0.8-0.8,1.7-1,2.6l-0.5,4.5c0.4,0.4,0.9,0.7,1.4,0.9
		s1.1,0.3,1.6,0.3c0.8,0,1.5-0.2,2.2-0.7c0.7-0.5,1.2-1.1,1.7-2c0.5-0.8,0.8-1.7,1.1-2.7c0.3-1,0.4-2,0.4-3c0-1.3-0.2-2.3-0.6-2.9
		C392,21.4,391.4,21.1,390.6,21.1z"/>
	<path class="st24" d="M399.1,36.5l2.3-18.7h2.3c0.4,0,0.8,0.1,1.1,0.3c0.3,0.2,0.4,0.5,0.4,0.9c0,0.1,0,0.2,0,0.4c0,0.2,0,0.5,0,1
		c0,0.4,0,1.1-0.1,1.9c0.8-1.5,1.6-2.6,2.5-3.4c0.9-0.8,1.9-1.2,2.8-1.2c0.5,0,1,0.1,1.5,0.3l-0.8,4.3c-0.6-0.3-1.2-0.4-1.7-0.4
		c-1.1,0-2,0.5-2.8,1.6c-0.8,1-1.5,2.7-2,4.9l-1,8.2H399.1z"/>
	<path class="st24" d="M427.4,22.2c0,0.8-0.2,1.6-0.5,2.3s-0.9,1.3-1.8,1.9c-0.9,0.5-2,1-3.5,1.4c-1.5,0.4-3.4,0.7-5.6,0.9v0.2
		c0,2.9,1.2,4.4,3.7,4.4c0.5,0,1-0.1,1.4-0.2c0.4-0.1,0.8-0.2,1.1-0.4s0.6-0.3,0.8-0.5c0.2-0.2,0.5-0.3,0.7-0.5s0.4-0.3,0.6-0.4
		c0.2-0.1,0.4-0.2,0.7-0.2c0.1,0,0.3,0,0.4,0.1c0.1,0.1,0.3,0.2,0.4,0.3l1.1,1.4c-0.6,0.6-1.3,1.2-1.9,1.7c-0.6,0.5-1.3,0.9-1.9,1.2
		c-0.6,0.3-1.3,0.5-2,0.7c-0.7,0.1-1.5,0.2-2.4,0.2c-1.1,0-2.1-0.2-3-0.6c-0.9-0.4-1.6-0.9-2.3-1.6c-0.6-0.7-1.1-1.5-1.5-2.4
		c-0.3-1-0.5-2-0.5-3.2c0-1,0.1-2,0.3-2.9c0.2-0.9,0.5-1.8,0.9-2.7c0.4-0.9,0.9-1.6,1.5-2.4c0.6-0.7,1.2-1.3,2-1.9
		c0.7-0.5,1.5-0.9,2.4-1.2c0.9-0.3,1.8-0.4,2.8-0.4c1,0,1.8,0.1,2.6,0.4c0.7,0.3,1.3,0.6,1.8,1.1c0.5,0.4,0.9,0.9,1.1,1.5
		C427.3,21.1,427.4,21.6,427.4,22.2z M421.3,20.7c-0.6,0-1.2,0.1-1.7,0.4c-0.5,0.2-1,0.6-1.4,1s-0.8,1-1.1,1.6
		c-0.3,0.6-0.6,1.3-0.7,2.1c1.5-0.2,2.7-0.4,3.6-0.7c0.9-0.2,1.6-0.5,2.1-0.8s0.8-0.6,1-0.9c0.2-0.3,0.2-0.7,0.2-1.1
		c0-0.2,0-0.4-0.1-0.6c-0.1-0.2-0.2-0.4-0.4-0.5c-0.2-0.2-0.4-0.3-0.6-0.4C422,20.7,421.7,20.7,421.3,20.7z"/>
	<path class="st24" d="M429.2,17.8h3.7c0.3,0,0.6,0.1,0.8,0.2c0.2,0.2,0.3,0.4,0.4,0.6l2,10c0.1,0.6,0.2,1.2,0.3,1.8
		c0,0.6,0.1,1.2,0.1,1.8c0.2-0.6,0.4-1.2,0.6-1.7c0.2-0.6,0.4-1.2,0.7-1.8l4.5-10c0.1-0.2,0.3-0.4,0.5-0.6c0.2-0.2,0.5-0.2,0.7-0.2
		h3.6l-9.2,18.7h-3.8L429.2,17.8z"/>
	<path class="st24" d="M454.1,17.8l-2.2,18.7h-4.5l2.2-18.7H454.1z M455.3,12.4c0,0.4-0.1,0.8-0.2,1.1c-0.2,0.3-0.4,0.6-0.6,0.9
		s-0.6,0.5-0.9,0.6s-0.7,0.2-1.1,0.2c-0.4,0-0.7-0.1-1-0.2c-0.3-0.2-0.6-0.4-0.9-0.6s-0.5-0.6-0.6-0.9c-0.2-0.3-0.2-0.7-0.2-1.1
		c0-0.4,0.1-0.8,0.2-1.1c0.2-0.4,0.4-0.7,0.6-0.9c0.3-0.3,0.5-0.5,0.9-0.6c0.3-0.2,0.7-0.2,1-0.2c0.4,0,0.7,0.1,1.1,0.2
		c0.3,0.2,0.6,0.4,0.9,0.6c0.3,0.3,0.5,0.6,0.6,0.9C455.2,11.6,455.3,12,455.3,12.4z"/>
	<path class="st24" d="M472.2,22.2c0,0.8-0.2,1.6-0.5,2.3s-0.9,1.3-1.8,1.9c-0.9,0.5-2,1-3.5,1.4c-1.5,0.4-3.4,0.7-5.6,0.9v0.2
		c0,2.9,1.2,4.4,3.7,4.4c0.5,0,1-0.1,1.4-0.2c0.4-0.1,0.8-0.2,1.1-0.4s0.6-0.3,0.8-0.5c0.2-0.2,0.5-0.3,0.7-0.5s0.4-0.3,0.6-0.4
		c0.2-0.1,0.4-0.2,0.7-0.2c0.1,0,0.3,0,0.4,0.1c0.1,0.1,0.3,0.2,0.4,0.3l1.1,1.4c-0.6,0.6-1.3,1.2-1.9,1.7c-0.6,0.5-1.3,0.9-1.9,1.2
		c-0.6,0.3-1.3,0.5-2,0.7c-0.7,0.1-1.5,0.2-2.4,0.2c-1.1,0-2.1-0.2-3-0.6c-0.9-0.4-1.6-0.9-2.3-1.6c-0.6-0.7-1.1-1.5-1.5-2.4
		c-0.3-1-0.5-2-0.5-3.2c0-1,0.1-2,0.3-2.9c0.2-0.9,0.5-1.8,0.9-2.7c0.4-0.9,0.9-1.6,1.5-2.4c0.6-0.7,1.2-1.3,2-1.9
		c0.7-0.5,1.5-0.9,2.4-1.2c0.9-0.3,1.8-0.4,2.8-0.4c1,0,1.8,0.1,2.6,0.4c0.7,0.3,1.3,0.6,1.8,1.1c0.5,0.4,0.9,0.9,1.1,1.5
		C472.1,21.1,472.2,21.6,472.2,22.2z M466.1,20.7c-0.6,0-1.2,0.1-1.7,0.4c-0.5,0.2-1,0.6-1.4,1s-0.8,1-1.1,1.6
		c-0.3,0.6-0.6,1.3-0.7,2.1c1.5-0.2,2.7-0.4,3.6-0.7c0.9-0.2,1.6-0.5,2.1-0.8s0.8-0.6,1-0.9c0.2-0.3,0.2-0.7,0.2-1.1
		c0-0.2,0-0.4-0.1-0.6c-0.1-0.2-0.2-0.4-0.4-0.5c-0.2-0.2-0.4-0.3-0.6-0.4C466.8,20.7,466.5,20.7,466.1,20.7z"/>
	<path class="st24" d="M474.2,17.8h3.4c0.3,0,0.6,0.1,0.8,0.2c0.2,0.2,0.3,0.4,0.3,0.6l1.1,10c0.1,0.5,0.1,1.1,0.1,1.6
		c0,0.5,0,1,0,1.5c0.2-0.5,0.4-1,0.6-1.5c0.2-0.5,0.4-1,0.6-1.6l4.1-10c0.1-0.2,0.3-0.4,0.5-0.6c0.2-0.2,0.5-0.2,0.7-0.2h1.9
		c0.3,0,0.6,0.1,0.7,0.2s0.3,0.4,0.3,0.6l1.6,10c0.1,0.5,0.2,1.1,0.2,1.6c0.1,0.5,0.1,1,0.2,1.5c0.1-0.5,0.3-1,0.4-1.5
		c0.2-0.5,0.3-1,0.5-1.6l3.6-10c0.1-0.2,0.2-0.4,0.5-0.6c0.2-0.2,0.5-0.2,0.7-0.2h3.3l-7.7,18.7h-3.5c-0.4,0-0.6-0.3-0.7-0.8
		l-1.8-10.8c-0.1-0.5-0.1-1-0.2-1.4c-0.1,0.2-0.2,0.5-0.3,0.7s-0.2,0.5-0.3,0.7l-4.5,10.8c-0.2,0.5-0.5,0.8-1,0.8h-3.3L474.2,17.8z"
		/>
</g>
</svg>
